<mxfile host="app.diagrams.net" modified="2023-11-01T11:11:02.835Z" agent="Mozilla/5.0 (Macintosh; Intel Mac OS X 10_15_7) AppleWebKit/537.36 (KHTML, like Gecko) Chrome/118.0.0.0 Safari/537.36" version="21.6.3" etag="Z57wfRfLg9pBERsolGI_" type="github">
  <diagram name="第 1 页" id="Fg_E1n1GZr7XynYYFf0v">
    <mxGraphModel>
      <root>
        <mxCell id="0" />
        <mxCell id="1" parent="0" />
      </root>
    </mxGraphModel>
  </diagram>
</mxfile>
